# xmcd
# Track frame offsets:
# 182
# 12930
# 25255
# 38462
# 52227
# 65440
# 75280
# 94995
# 113220
# 129555
# 140807
# 158665
# 172870
# 188375
#
# Disc length: 2767 seconds
# Revision: 0
# Processed by: cddbd v1.4PL0 Copyright (c) Steve Scherf et al.
# Submitted via: VisiTrax 2.9.5.181 - For more info visit www.synapsa.com
#
DISCID=ab0acd0e
DTITLE=Various Artist - Country Nights
DYEAR=1900
DGENRE=
TTITLE0=Marty Robbins - Tonight Carmen
TTITLE1=Charlie Pride - Night Games
TTITLE2=Ronnie Milsap - What goes on when the sun goes down
TTITLE3=Ray Price - City lights
TTITLE4=Johnny Duncan - She can put her shoes under my bed
TTITLE5=Jimmy Dean - The first thing every morning
TTITLE6=Willie Nelson - Georgia on my mind
TTITLE7=Alabama - Fire in the night
TTITLE8=Mickey Gilley - Stand by me
TTITLE9=Charlie Rich - She called me baby
TTITLE10=Michael Johnson - The moon is still over her shoulder
TTITLE11=Exile - Woke up in love
TTITLE12=Merle Haggard - Twinkle Twinkle Lucky Star
TTITLE13=Tammy Wynette - Bedtime story
EXTD=
EXTT0=
EXTT1=
EXTT2=
EXTT3=
EXTT4=
EXTT5=
EXTT6=
EXTT7=
EXTT8=
EXTT9=
EXTT10=
EXTT11=
EXTT12=
EXTT13=
PLAYORDER=
